<svg width="38" height="38" viewBox="0 0 38 38" fill="none" xmlns="http://www.w3.org/2000/svg">
<g id="Frame">
<path id="Vector" d="M27.4039 19.6188C27.4363 17.111 28.7528 14.7945 30.8922 13.481C29.5364 11.5473 27.3469 10.3652 24.9843 10.2914C22.4986 10.0308 20.0888 11.7768 18.8221 11.7768C17.5309 11.7768 15.5807 10.3173 13.4806 10.3604C10.7174 10.4496 8.2038 11.9804 6.85946 14.3929C3.99663 19.3428 6.13205 26.6174 8.8744 30.6184C10.2465 32.5776 11.85 34.7661 13.9482 34.6885C16.0014 34.6035 16.7682 33.381 19.2466 33.381C21.702 33.381 22.4215 34.6885 24.5623 34.6392C26.7655 34.6035 28.1536 32.6713 29.4775 30.6935C30.4633 29.2975 31.2219 27.7546 31.7252 26.122C29.1084 25.0167 27.407 22.4562 27.4039 19.6188Z" fill="#1E1E1E"/>
<path id="Vector_2" d="M23.3604 7.66005C24.5617 6.21991 25.1535 4.36887 25.0102 2.5C23.1749 2.6925 21.4796 3.56846 20.2621 4.95334C19.0599 6.31971 18.4508 8.10728 18.5691 9.92235C20.429 9.94147 22.1949 9.10765 23.3604 7.66005Z" fill="#1E1E1E"/>
</g>
</svg>
