<svg width="1920" height="705" viewBox="0 0 1920 705" fill="none" xmlns="http://www.w3.org/2000/svg">
<rect y="288.445" width="241" height="416" fill="#C70163"/>
<g clip-path="url(#clip0_0_486)">
<mask id="mask0_0_486" style="mask-type:luminance" maskUnits="userSpaceOnUse" x="240" y="-168" width="1440" height="796">
<path d="M1680 627.95V-167.05L1339.5 400.365L948 553.865L561.5 400.365L345.5 162.865L240 -167.05V627.95H1680Z" fill="white"/>
</mask>
<g mask="url(#mask0_0_486)">
<path d="M779.729 506.708C765.577 489.866 752.083 473.804 729.349 463.301C695.267 447.553 669.962 446.027 646.908 444.638C623.02 443.197 601.548 441.903 575.228 425.082C546.138 406.49 534.392 388.878 522.319 370.775C512.929 356.695 503.341 342.318 485.239 326.953C451.757 298.532 416.971 288.735 375.596 288.735H238.026V627.536H1682V288.735H1544.43C1503.05 288.735 1468.27 298.532 1434.79 326.953C1416.68 342.318 1407.1 356.695 1397.71 370.775C1385.63 388.877 1373.88 406.49 1344.79 425.082C1318.48 441.903 1297.01 443.197 1273.11 444.638C1250.06 446.027 1224.76 447.553 1190.68 463.301C1167.94 473.804 1154.45 489.866 1140.3 506.708C1111.31 541.21 1079.56 578.989 960.012 578.989C840.462 578.989 808.719 541.21 779.729 506.708Z" fill="#C70163"/>
<path d="M847.08 455.945L857.846 476.547C862.502 485.457 871.723 491.042 881.776 491.042H1038.25C1048.31 491.042 1057.53 485.457 1062.18 476.547L1072.95 455.945L963.869 452.857V452.639L960.015 452.748L956.161 452.639V452.857L847.08 455.945Z" fill="#5DAD00"/>
<path d="M879.252 475.826H1040.75C1062.67 475.826 1079.51 456.392 1076.38 434.691L1045.49 220.357C1043.58 207.071 1032.19 197.209 1018.77 197.209H901.233C887.809 197.209 876.423 207.071 874.509 220.357L843.62 434.691C840.493 456.392 857.327 475.826 879.252 475.826Z" fill="#78C800"/>
<path d="M1071.93 435.331C1074.66 454.32 1059.93 471.325 1040.75 471.325H879.252C860.067 471.325 845.338 454.32 848.074 435.331L878.963 220.998C880.558 209.926 890.046 201.708 901.233 201.708H1018.77C1029.95 201.708 1039.44 209.926 1041.04 220.998L1071.93 435.331Z" fill="white"/>
<path d="M1041.09 221.395H878.905L878.963 220.998C880.558 209.926 890.046 201.707 901.233 201.707H1018.77C1029.95 201.707 1039.44 209.926 1041.04 220.998L1041.09 221.395Z" fill="#A4F34F"/>
<path d="M1175.85 185.362L1195.82 166.336C1199.12 163.906 1203.8 166.019 1204.17 170.098L1204.78 174.751L1221.17 170.136C1224.21 168.215 1228.24 169.863 1229.07 173.367C1229.07 173.367 1237.17 198.379 1238.05 207.547C1239.18 216.543 1238.69 226.028 1234.49 234.687C1224.95 254.313 1201.32 262.496 1181.69 252.963C1162.06 243.43 1153.88 219.791 1163.41 200.164C1166.38 194.06 1170.7 189.064 1175.85 185.362Z" fill="#FF9600"/>
<path d="M1213.36 204.839C1214.86 203.503 1217.24 204.267 1217.67 206.222L1221.33 221.927C1221.9 225.393 1221.86 229.591 1220.29 233.427C1216.64 242.338 1208.42 246.281 1201.64 243.503C1194.85 240.726 1192.01 232.412 1195.65 223.501C1197.17 219.795 1200.04 216.262 1202.66 214.14C1203.38 213.411 1213.36 204.839 1213.36 204.839Z" fill="#FFDE00"/>
<path d="M1309.87 364.427L1333.66 371.502L1370.48 354.59" stroke="white" stroke-width="6.39997" stroke-linecap="round" stroke-linejoin="round"/>
<path d="M1163.63 363.065C1206.15 351.802 1238.29 333.778 1235.6 322.74C1235.59 322.706 1235.58 322.671 1235.58 322.637L1232.01 309.183L1211.85 314.524C1196.67 314.262 1175.66 317.139 1153.05 323.128C1130.44 329.117 1110.77 337.017 1097.7 344.763L1077.55 350.103L1081.14 363.659C1084.26 374.583 1121.11 374.329 1163.63 363.065Z" fill="#E49E00"/>
<path d="M1232 309.153C1234.92 320.182 1202.71 338.283 1160.06 349.582C1117.41 360.882 1080.46 361.101 1077.54 350.072C1074.62 339.044 1106.83 320.943 1149.48 309.644C1192.14 298.344 1229.08 298.124 1232 309.153Z" fill="#FFDE00"/>
<path d="M1031.2 314.115C1029.84 323.994 997.788 328.338 959.442 323.815C921.095 319.292 890.932 307.609 891.906 297.684L893.348 285.458L911.526 287.603C924.689 285.494 943.3 285.392 963.69 287.797C984.08 290.202 1002.16 294.632 1014.47 299.745L1032.65 301.889L1031.22 314.021C1031.21 314.052 1031.21 314.084 1031.2 314.115Z" fill="#E49E00"/>
<path d="M965.124 275.636C1003.56 280.17 1033.82 291.921 1032.65 301.86C1031.48 311.799 999.315 316.187 960.876 311.653C922.436 307.119 892.178 295.368 893.351 285.429C894.523 275.49 926.685 271.102 965.124 275.636Z" fill="#FFDE00"/>
<path d="M932.193 300.753C927.22 299.529 922.633 298.194 918.524 296.788L962.377 279.799C963.116 279.881 963.858 279.964 964.603 280.052C969.685 280.651 974.608 281.378 979.318 282.207L932.193 300.753ZM916.013 279.506C925.051 278.273 936.591 277.941 949.478 278.706L909.11 293.058C905.72 291.482 903.077 289.922 901.212 288.457C898.939 286.67 898.731 285.878 898.784 285.43C898.858 284.801 899.223 284.26 901.85 283.051C904.979 281.611 909.748 280.361 916.013 279.506Z" fill="#FFDE00"/>
<path d="M1131.22 322.037C1131.88 321.464 1131.28 320.417 1130.46 320.702C1118.06 324.967 1107.31 329.677 1099.07 334.308C1092.79 337.837 1088.26 341.158 1085.55 343.993C1083.27 346.373 1083.11 347.101 1083.3 347.797C1083.43 348.294 1083.98 349.047 1087.14 349.988C1089.52 350.699 1092.64 351.219 1096.45 351.492C1097.08 351.538 1097.69 351.325 1098.17 350.91L1131.22 322.037Z" fill="#FFDE00"/>
<path d="M1110.58 350.077C1110.03 350.583 1110.41 351.493 1111.16 351.447C1115.27 351.195 1119.69 350.761 1124.35 350.144C1124.84 350.079 1125.3 349.861 1125.67 349.521L1165.2 312.602C1165.79 312.05 1165.28 311.076 1164.49 311.246C1160.03 312.207 1155.44 313.306 1150.78 314.54C1150.14 314.709 1149.51 314.879 1148.88 315.05C1148.51 315.151 1148.17 315.341 1147.88 315.602L1110.58 350.077Z" fill="#FFDE00"/>
<path d="M701.285 170.003C719.826 173.087 735.512 171.716 736.402 166.944C736.405 166.928 736.407 166.913 736.409 166.898L737.385 161.032L728.595 159.57C722.727 156.799 714.041 154.229 704.181 152.589C694.323 150.949 685.272 150.569 678.823 151.29L670.034 149.828L669.05 155.739C668.347 160.543 682.745 166.919 701.285 170.003Z" fill="#E49E00"/>
<path d="M737.388 161.018C736.588 165.828 720.861 167.217 702.263 164.124C683.664 161.03 669.236 154.623 670.036 149.814C670.836 145.006 686.561 143.615 705.16 146.71C723.759 149.804 738.187 156.21 737.388 161.018Z" fill="#FFDE00"/>
<path d="M694.09 148.868C694.841 148.64 694.735 147.576 693.952 147.516C689.117 147.149 684.765 147.141 681.192 147.457C678.126 147.728 675.778 148.226 674.223 148.854C672.918 149.381 672.728 149.636 672.677 149.94C672.642 150.157 672.724 150.547 673.788 151.468C674.516 152.097 675.503 152.771 676.745 153.466C677.239 153.743 677.826 153.795 678.368 153.63L694.09 148.868Z" fill="#FFDE00"/>
<path d="M683.887 155.293C683.25 155.505 683.229 156.389 683.86 156.617C685.133 157.079 686.485 157.529 687.909 157.962C688.337 158.093 688.796 158.083 689.22 157.94L709.489 151.053C710.177 150.82 710.124 149.841 709.411 149.696C707.913 149.39 706.375 149.106 704.805 148.844C704.619 148.813 704.434 148.783 704.248 148.752C703.907 148.697 703.556 148.727 703.228 148.836L683.887 155.293Z" fill="#FFDE00"/>
<path d="M676.545 233.795C702.803 238.541 725.096 236.905 726.454 230.149C726.459 230.127 726.462 230.106 726.466 230.085L727.968 221.777L715.52 219.527C707.245 215.478 694.965 211.657 681.003 209.133C667.042 206.609 654.201 205.89 645.032 206.786L632.585 204.537L631.071 212.907C629.978 219.713 650.289 229.049 676.545 233.795Z" fill="#E49E00"/>
<path d="M727.971 221.758C726.74 228.568 704.391 230.23 678.051 225.469C651.712 220.708 631.357 211.327 632.588 204.517C633.819 197.707 656.17 196.046 682.509 200.807C708.848 205.568 729.202 214.948 727.971 221.758Z" fill="#FFDE00"/>
<path d="M667.802 203.348C668.64 203.108 668.54 201.916 667.672 201.832C660.381 201.124 653.816 200.995 648.471 201.393C644.113 201.716 640.771 202.377 638.551 203.237C636.689 203.96 636.413 204.318 636.336 204.748C636.28 205.055 636.39 205.61 637.882 206.938C638.948 207.887 640.416 208.91 642.275 209.97C642.822 210.282 643.473 210.35 644.078 210.176L667.802 203.348Z" fill="#FFDE00"/>
<path d="M651.56 212.754C650.849 212.981 650.811 213.965 651.508 214.233C653.528 215.011 655.698 215.772 658.001 216.505C658.475 216.656 658.984 216.653 659.456 216.499L689.319 206.817C690.088 206.568 690.043 205.477 689.254 205.3C686.891 204.774 684.456 204.282 681.961 203.831C681.646 203.773 681.33 203.718 681.014 203.662C680.635 203.596 680.246 203.624 679.878 203.74L651.56 212.754Z" fill="#FFDE00"/>
<path d="M767.9 312.917C801.759 301.586 826.861 285.319 824.107 276.517C824.098 276.489 824.089 276.462 824.079 276.434L820.494 265.721L804.441 271.094C792.128 271.669 775.261 275.089 757.257 281.114C739.252 287.139 723.724 294.56 713.544 301.512L697.493 306.884L701.105 317.679C704.203 326.366 734.04 324.248 767.9 312.917Z" fill="#E49E00"/>
<path d="M820.485 265.697C823.425 274.479 798.273 290.812 764.307 302.18C730.34 313.546 700.423 315.642 697.484 306.86C694.545 298.078 719.698 281.743 753.663 270.377C787.629 259.011 817.547 256.915 820.485 265.697Z" fill="#FFDE00"/>
<path d="M739.271 281.609C739.828 281.056 739.229 280.152 738.505 280.456C728.822 284.516 720.474 288.838 714.108 292.972C709.204 296.156 705.706 299.083 703.657 301.521C701.936 303.567 701.844 304.164 702.03 304.719C702.162 305.114 702.649 305.695 705.254 306.293C707.207 306.742 709.733 307 712.789 307.029C713.356 307.033 713.899 306.806 714.302 306.407L739.271 281.609Z" fill="#FFDE00"/>
<path d="M724.382 305.009C723.918 305.495 724.314 306.29 724.981 306.205C728.226 305.792 731.695 305.224 735.342 304.502C735.78 304.415 736.181 304.192 736.488 303.867L766.375 272.139C766.873 271.61 766.364 270.765 765.665 270.964C762.173 271.957 758.598 273.062 754.968 274.276C754.479 274.44 753.99 274.605 753.503 274.772C753.176 274.883 752.881 275.074 752.643 275.324L724.382 305.009Z" fill="#FFDE00"/>
<path d="M800.29 175.448C796.063 173.038 791.043 172.123 785.883 173.301C775.163 175.746 768.466 186.526 770.942 197.317C772.36 203.498 776.569 208.436 781.843 211.041C781.843 211.041 807.633 224.333 808.005 224.494C810.406 225.712 813.351 225.042 814.982 222.862C814.982 222.862 832.719 199.363 832.925 198.69C836.175 194.108 837.615 188.168 836.283 182.131C833.872 171.329 823.021 164.593 812.315 167.094C807.145 168.302 803.013 171.354 800.29 175.448Z" fill="#FF4B4B"/>
<path d="M795.208 189.089C796.143 193.16 793.601 197.219 789.529 198.154C785.458 199.09 781.4 196.547 780.464 192.476C779.529 188.404 782.072 184.346 786.142 183.411C790.214 182.475 794.272 185.017 795.208 189.089Z" fill="#FFB2B2"/>
<path d="M574.198 270.41C574.489 269.125 573.881 267.803 572.716 267.187L498.969 228.251C497.273 227.355 495.188 228.314 494.764 230.185L485.03 273.155C484.739 274.441 485.346 275.762 486.512 276.378L560.257 315.314C561.955 316.21 564.039 315.253 564.464 313.381L574.198 270.41Z" fill="#8E5501"/>
<path d="M570.727 270.344L531.07 285.98L491.56 265.277L489.626 273.821L561.678 310.285L570.727 270.344Z" fill="#724400"/>
<path d="M468.53 238.252L495.084 228.774L484.536 275.335L457.896 285.192L468.53 238.252Z" fill="#CE7D03"/>
<path d="M534.916 325.748L457.889 285.198L484.536 275.335L561.562 315.885L534.916 325.748Z" fill="#CE7D03"/>
<path d="M547.62 320.512L471.224 280.222L480.94 237.345" stroke="#B06800" stroke-width="2.916"/>
<path d="M535.679 326.476C534.888 326.793 533.997 326.748 533.243 326.352L519.285 319.038C518.168 318.454 518.27 316.822 519.452 316.381L544.457 307.056L563.213 313.011L562.955 315.566L535.679 326.476Z" fill="#EEAB00"/>
<path d="M465.961 251.744C464.877 252.139 463.785 251.178 464.039 250.052L466.22 240.427C466.439 239.462 467.132 238.674 468.061 238.334L496.669 227.854L498.637 230.166L492.192 242.18L465.961 251.744Z" fill="#EEAB00"/>
<path d="M561.685 311.819L571.077 269.948L498.109 231.918L488.708 273.415L561.685 311.819Z" stroke="#FFDE00" stroke-width="7.29001" stroke-linejoin="round"/>
<path d="M521.074 179.715C520.989 180.554 607.967 225.104 607.639 224.928C592.515 216.914 576.71 208.506 563.117 201.295C538.619 188.23 521.128 179.179 521.074 179.715Z" fill="#CE7D03"/>
<path d="M458.872 273.84C459.066 272.985 459.678 272.286 460.499 271.981L487.619 261.817L485.178 272.59C484.812 274.209 485.586 275.872 487.061 276.634L502.624 284.671L475.263 294.924C474.578 295.179 473.817 295.133 473.166 294.797L458.625 287.288C457.149 286.526 456.375 284.863 456.742 283.244L458.872 273.84Z" fill="#EEAB00"/>
<path d="M530.186 179.784C513.6 175.843 496.938 185.919 493.088 202.601C489.199 219.396 500.635 233.771 517.454 237.581C534.272 241.392 549.635 233.467 553.446 216.649C557.256 199.83 546.776 183.727 530.186 179.784Z" fill="#B06800"/>
<path d="M495.827 203.465C492.442 218.816 501.837 233.536 517.084 236.991C532.333 240.445 547.774 230.571 550.632 215.466C553.514 200.392 543.736 185.592 528.794 182.397C513.793 179.217 499.141 188.774 495.827 203.465Z" stroke="#FCC90E" stroke-width="5.83201"/>
<path d="M576.247 263.225L497.161 221.469L529.906 184.641L608.992 226.397L576.247 263.225Z" fill="#8E5501"/>
<path d="M572.487 264.556C568.307 258.236 567.027 250.02 569.112 242.295C572.999 227.495 587.783 218.583 602.71 222.061C605.131 222.644 607.295 223.515 609.41 224.612L572.487 264.556Z" fill="#724400"/>
<path d="M577.909 260.646C575.783 263.038 571.892 263.735 569.06 262.248L503.252 227.502C499.067 225.292 498.115 219.837 501.261 216.302L527.971 187.035C530.23 184.565 533.888 184.009 536.855 185.576L602.677 220.393C606.862 222.601 607.8 228.131 604.649 231.554L577.909 260.646Z" stroke="#FCC90E" stroke-width="7.29001" stroke-linejoin="round"/>
<mask id="mask1_0_486" style="mask-type:alpha" maskUnits="userSpaceOnUse" x="495" y="181" width="116" height="86">
<path d="M577.909 260.645C575.783 263.037 571.892 263.734 569.06 262.247L503.252 227.501C499.067 225.291 498.115 219.836 501.261 216.301L527.971 187.034C530.23 184.565 533.888 184.008 536.855 185.575L602.677 220.392C606.862 222.6 607.8 228.13 604.649 231.553L577.909 260.645Z" stroke="#FCC90E" stroke-width="7.29001" stroke-linejoin="round"/>
</mask>
<g mask="url(#mask1_0_486)">
<path d="M566.462 195.632L584.913 239.265L603.244 274.975L644.93 232.991L566.462 195.632Z" fill="#FFDE00"/>
</g>
<path d="M577.742 255.964L581.242 262.25C581.242 262.25 579.958 264.01 577.773 265.482C577.653 265.298 574.521 259.293 574.521 259.293L577.742 255.964Z" fill="#FFDE00"/>
<path d="M564.02 203.63L559.291 193.305L551.577 189.211L556.457 199.639L564.02 203.63Z" fill="#FFDE00"/>
<path d="M571.766 280.446C569.964 279.589 567.844 279.743 566.183 280.851L553.561 289.277C551.927 290.367 550.974 292.227 551.042 294.189L551.431 305.425C551.505 307.574 552.788 309.496 554.743 310.39L564.973 315.056C566.76 315.873 568.842 315.704 570.475 314.614L583.097 306.187C584.758 305.08 585.714 303.179 585.613 301.185L585.053 290.062C584.947 287.98 583.707 286.124 581.824 285.228L571.766 280.446Z" fill="#1CB0F6"/>
<path d="M579.141 287.385L570.633 283.614C569.629 283.169 568.483 283.829 568.366 284.92L567.861 289.591C567.784 290.314 568.195 291 568.871 291.269L573.668 293.185C574.163 293.383 574.725 293.325 575.169 293.029L579.384 290.214C580.445 289.505 580.308 287.903 579.141 287.385Z" fill="#DDF4FF"/>
<path d="M593.617 308.488C591.664 308.902 590.073 310.312 589.427 312.201L582.275 333.134C581.639 334.993 582.011 337.047 583.258 338.565L594.054 351.716C595.418 353.377 597.604 354.124 599.699 353.644L616.286 349.853C618.201 349.415 619.752 348.017 620.387 346.159L627.541 325.226C628.186 323.338 627.791 321.248 626.499 319.725L615.602 306.871C614.254 305.281 612.142 304.559 610.101 304.991L593.617 308.488Z" fill="#1CB0F6"/>
<path d="M608.872 309.418L595.288 312.677C594.221 312.933 593.712 314.156 594.282 315.094L598.08 321.354C598.458 321.976 599.202 322.271 599.903 322.075L607.124 320.052C607.638 319.908 608.048 319.521 608.22 319.016L610.782 311.517C611.195 310.31 610.114 309.12 608.872 309.418Z" fill="#DDF4FF"/>
<path d="M1346.93 164.294C1338.33 171.634 1328.7 174.85 1323.99 172.292C1320.53 170.433 1316.8 166.475 1315.82 162.657C1314.11 157.587 1318.8 148.653 1327.37 141.352C1336.04 133.958 1345.73 130.75 1350.41 133.41C1353.79 134.973 1356.89 138.891 1358.25 142.426C1360.53 147.376 1355.82 156.715 1346.93 164.294Z" fill="#1CB0F6"/>
<path d="M1351.94 172.185C1341.29 181.27 1329.95 185.914 1324.87 183.628C1321.13 181.97 1317.32 178.024 1316.64 173.92C1315.28 168.515 1321.64 158.118 1332.24 149.082C1342.97 139.932 1354.39 135.286 1359.42 137.69C1363.1 139.031 1366.18 143.005 1367.34 146.752C1369.38 151.958 1362.94 162.806 1351.94 172.185Z" fill="#1CB0F6"/>
<path d="M1356.29 178.606L1344.03 163.086" stroke="#C9C7C7" stroke-width="6.816" stroke-linecap="round"/>
<path d="M1370.76 198.697C1360.1 207.782 1348.77 212.425 1343.69 210.139C1339.94 208.481 1336.15 204.535 1335.46 200.432C1334.1 195.027 1340.46 184.629 1351.05 175.594C1361.78 166.443 1373.22 161.797 1378.23 164.202C1381.92 165.542 1385 169.516 1386.17 173.263C1388.2 178.469 1381.76 189.317 1370.76 198.697Z" fill="#1CB0F6"/>
<path d="M1376.85 206.827C1368.24 214.168 1358.62 217.383 1353.91 214.825C1350.44 212.966 1346.72 209.008 1345.74 205.191C1344.04 200.12 1348.72 191.186 1357.29 183.885C1365.96 176.491 1375.65 173.283 1380.32 175.943C1383.71 177.506 1386.81 181.424 1388.18 184.959C1390.46 189.908 1385.74 199.248 1376.85 206.827Z" fill="#1CB0F6"/>
<path d="M1360.97 199.474C1358.37 201.579 1356.14 205.5 1355.69 207.219M1346.52 191.169C1343.93 193.274 1341.69 197.194 1341.25 198.915M1327.77 165.041C1325.18 167.145 1322.94 171.066 1322.5 172.787" stroke="#60C8F9" stroke-width="6.816" stroke-linecap="round"/>
<path d="M687.283 402.289L697.426 392.039C698.669 390.782 700.695 390.772 701.952 392.015L712.202 402.158C713.459 403.401 713.47 405.427 712.226 406.684L702.084 416.934C700.84 418.191 698.814 418.201 697.557 416.958L687.307 406.815C686.05 405.572 686.04 403.546 687.283 402.289Z" fill="#BFFF79"/>
<path d="M1339.28 264.833L1358.72 257.64C1360.38 257.028 1362.22 257.874 1362.84 259.532L1370.03 278.975C1370.64 280.633 1369.79 282.473 1368.14 283.086L1348.69 290.278C1347.03 290.891 1345.19 290.045 1344.58 288.387L1337.39 268.944C1336.78 267.286 1337.62 265.445 1339.28 264.833Z" fill="#BFFF79"/>
</g>
<rect x="240" y="625.261" width="1442" height="79.55" fill="#C70163"/>
</g>
<rect x="1679" y="288.445" width="241" height="416" fill="#C70163"/>
<defs>
<clipPath id="clip0_0_486">
<rect width="1440" height="704.08" fill="white" transform="translate(240 0.365234)"/>
</clipPath>
</defs>
</svg>
