<svg width="39" height="40" viewBox="0 0 39 40" fill="none" xmlns="http://www.w3.org/2000/svg">
<g id="Frame">
<path id="Vector" fill-rule="evenodd" clip-rule="evenodd" d="M4.01538 5.05386C4.01538 4.81695 4.03424 4.59525 4.07029 4.38965L18.8272 19.9687L4.04662 35.5727C4.02603 35.4122 4.01538 35.2427 4.01538 35.0646V5.05386ZM5.64173 37.4843C6.18479 37.572 6.82861 37.4398 7.51743 37.0551L25.4882 27.0007L20.5302 21.7664L5.64173 37.4843ZM22.233 19.9687L27.715 25.7561L34.3938 22.02C36.3193 20.9413 36.3193 19.1772 34.3938 18.1011L27.6016 14.3011L22.233 19.9687ZM25.3756 13.0556L7.51743 3.06453C6.96339 2.75378 6.43829 2.60724 5.97245 2.60724C5.91215 2.60724 5.85283 2.60967 5.79454 2.61452L20.5302 18.171L25.3756 13.0556Z" fill="#1E1E1E"/>
</g>
</svg>
